<svg xmlns="http://www.w3.org/2000/svg" viewBox="0 0 1440 1250" width="1440" height="1250"
     role="img" aria-labelledby="title desc">
  <title id="title">revlens — the main window</title>
  <desc id="desc">Annotated drawing of the revlens viewer: a left rail holding the three view modes and the
    about page, a header with the document identity, a column with the filter and the revision list, the
    document itself with every change marked in place, and the inspector on the right showing the revision
    and the comment behind the selected change. The rail is drawn again at the foot in both of its states,
    icons only and icons with labels.</desc>

  <style>
    .ui   { font-family: system-ui, 'Segoe UI', Roboto, sans-serif; }
    .mono { font-family: ui-monospace, 'Cascadia Mono', Consolas, monospace; }
    .doc  { font-family: 'Iowan Old Style', 'Palatino Linotype', Palatino, Georgia, serif; font-size: 13.5px; fill: #1c1c1a; }
    .ink  { fill: #1c1c1a; }
    .soft { fill: #55534e; }
    .faint{ fill: #8a8781; }
    .h2   { fill: #8a8781; font-size: 10px; letter-spacing: 1.1px; }
    .h3   { fill: #1c1c1a; font-size: 11.5px; font-weight: 600; }
    .s10  { font-size: 10px; }
    .s105 { font-size: 10.5px; }
    .s115 { font-size: 11.5px; }
    .s12  { font-size: 12px; }
    .bnum { fill: #ffffff; font-size: 10.5px; font-weight: 600; text-anchor: middle; }
    .cap  { fill: #55534e; font-size: 11.5px; }
    .capH { fill: #1c1c1a; font-size: 12.5px; font-weight: 600; }
  </style>

  <rect width="1440" height="1250" fill="#f2f1ee"/>

  <!-- Heading -->
  <g class="ui">
    <text x="48" y="42" class="ink" font-size="21" font-weight="650">revlens — the main window</text>
    <text x="48" y="66" class="soft" font-size="12.5">The viewer in <tspan class="mono">apps/web</tspan>: one bundle, four columns — what is shown, the way in, the document, and the record behind each change.</text>
    <text x="48" y="86" class="faint" font-size="11">Interface strings are Czech (<tspan class="mono">apps/web/src/strings.ts</tspan>) and are drawn here as they appear; the annotations are English, per the repository rule. English drawing: <tspan class="mono">main-window.svg</tspan>.</text>
  </g>

  <!-- Window frame -->
  <rect x="48" y="110" width="1048" height="770" rx="6" fill="#ffffff" stroke="#c9c6c0"/>

  <!-- Everything inside the frame but the rail, moved right by the rail's width -->
  <g transform="translate(48,0)">

  <!-- Header -->
  <g class="ui">
    <line x1="0" y1="156" x2="1048" y2="156" stroke="#e2e0db"/>
    <text x="82" y="139" class="ink" font-size="13" font-weight="650">revlens</text>
    <text x="146" y="139" class="soft" font-size="12">Rámcová smlouva o dílo · v4 · proti verzi v3</text>

    <text x="917" y="139" class="faint" font-size="11" text-anchor="end">3 změny nemají doložený původ.</text>
    <text x="1032" y="139" class="faint" font-size="11" text-anchor="end">sestaveno 17. 9. 2026</text>
  </g>

  <!-- Column separators -->
  <rect x="296" y="156" width="4" height="724" fill="#e2e0db"/>
  <rect x="754" y="156" width="4" height="724" fill="#e2e0db"/>
  <rect x="300" y="156" width="454" height="724" fill="#fbfbfa"/>

  <!-- Left pane -->
  <g class="ui">
    <!-- tabs -->
    <line x1="62" y1="192" x2="282" y2="192" stroke="#e2e0db"/>
    <text x="98" y="186" class="soft s115" text-anchor="middle">Kapitoly</text>
    <text x="172" y="186" fill="#2b6cb0" class="s115" font-weight="600" text-anchor="middle">Revize</text>
    <text x="246" y="186" class="soft s115" text-anchor="middle">Připomínky</text>
    <rect x="136" y="190" width="72" height="2" fill="#2b6cb0"/>

    <!-- filter -->
    <text x="62" y="214" class="faint s105">Hledat v pokynech a připomínkách</text>
    <rect x="62" y="218" width="220" height="20" rx="4" fill="#ffffff" stroke="#c9c6c0"/>
    <text x="69" y="232" class="faint" font-size="11">např. CTO, PLAN, K2-004</text>

    <text x="62" y="250" class="faint s105">Autor</text>
    <rect x="62" y="254" width="220" height="20" rx="4" fill="#ffffff" stroke="#c9c6c0"/>
    <text x="69" y="268" class="soft" font-size="11">—</text>
    <path d="M270 262 l5 5 l5 -5" fill="none" stroke="#8a8781" stroke-width="1.2"/>

    <text x="62" y="286" class="faint s105">Kolo připomínek</text>
    <rect x="62" y="290" width="220" height="20" rx="4" fill="#ffffff" stroke="#c9c6c0"/>
    <text x="69" y="304" class="soft" font-size="11">K2</text>
    <path d="M270 298 l5 5 l5 -5" fill="none" stroke="#8a8781" stroke-width="1.2"/>

    <text x="62" y="322" class="faint s105">Ověření</text>
    <rect x="62" y="326" width="220" height="20" rx="4" fill="#ffffff" stroke="#c9c6c0"/>
    <text x="69" y="340" class="soft" font-size="11">—</text>
    <path d="M270 334 l5 5 l5 -5" fill="none" stroke="#8a8781" stroke-width="1.2"/>

    <text x="62" y="358" class="faint s105">Rozhodnutí</text>
    <rect x="62" y="362" width="220" height="20" rx="4" fill="#ffffff" stroke="#c9c6c0"/>
    <text x="69" y="376" class="soft" font-size="11">—</text>
    <path d="M270 370 l5 5 l5 -5" fill="none" stroke="#8a8781" stroke-width="1.2"/>

    <text x="62" y="394" class="faint s105">Vypořádání</text>
    <rect x="62" y="398" width="220" height="20" rx="4" fill="#ffffff" stroke="#c9c6c0"/>
    <text x="69" y="412" class="soft" font-size="11">—</text>
    <path d="M270 406 l5 5 l5 -5" fill="none" stroke="#8a8781" stroke-width="1.2"/>

    <rect x="62" y="428" width="14" height="14" rx="3" fill="#ffffff" stroke="#c9c6c0"/>
    <text x="82" y="440" class="soft" font-size="11">Jen nezapracované v tomto rozsahu</text>

    <text x="62" y="464" class="faint s105">Od</text>
    <rect x="62" y="468" width="106" height="20" rx="4" fill="#ffffff" stroke="#c9c6c0"/>
    <text x="69" y="482" class="soft" font-size="11">1. 8. 2026</text>
    <text x="176" y="464" class="faint s105">Do</text>
    <rect x="176" y="468" width="106" height="20" rx="4" fill="#ffffff" stroke="#c9c6c0"/>
    <text x="183" y="482" class="soft" font-size="11">17. 9. 2026</text>

    <text x="62" y="506" class="faint" font-size="11">Zobrazeno 24 z 31 změn</text>

    <rect x="62" y="514" width="78" height="22" rx="4" fill="none" stroke="#e2e0db"/>
    <text x="101" y="529" class="soft" font-size="11" text-anchor="middle">Zrušit filtr</text>
    <rect x="146" y="514" width="84" height="22" rx="4" fill="none" stroke="#e2e0db"/>
    <text x="188" y="529" class="soft" font-size="11" text-anchor="middle">Zrušit výběr</text>

    <!-- revision list -->
    <text x="62" y="560" class="h2">REVIZE</text>

    <rect x="62" y="568" width="220" height="66" rx="5" fill="#eaf1f9" stroke="#2b6cb0"/>
    <rect x="70" y="579" width="9" height="9" rx="2" fill="#51259D"/>
    <text x="86" y="587" class="mono faint s105">r-0142</text>
    <text x="274" y="587" class="faint s105" text-anchor="end">14. 9. 2026 16:40</text>
    <text x="70" y="603" class="ink s12">Snížení smluvní pokuty na 0,2 %</text>
    <text x="70" y="617" class="faint s105">Jan Dvořák</text>
    <text x="274" y="617" class="faint s105" text-anchor="end">3 změny</text>
    <text x="70" y="630" class="mono faint s10">K2-004</text>
    <rect x="112" y="620" width="46" height="13" rx="6.5" fill="#e6f4ee"/>
    <text x="135" y="630" fill="#1a7f5a" class="s10" text-anchor="middle">přijato</text>
    <rect x="162" y="620" width="70" height="13" rx="6.5" fill="#e6f4ee"/>
    <text x="197" y="630" fill="#1a7f5a" class="s10" text-anchor="middle">zapracováno</text>

    <rect x="62" y="638" width="220" height="66" rx="5" fill="none" stroke="#f2f1ee"/>
    <rect x="70" y="649" width="9" height="9" rx="2" fill="#25849D"/>
    <text x="86" y="657" class="mono faint s105">r-0139</text>
    <text x="274" y="657" class="faint s105" text-anchor="end">11. 9. 2026 09:05</text>
    <text x="70" y="673" class="ink s12">Lhůta pro předání díla</text>
    <text x="70" y="687" class="faint s105">Marie Novotná</text>
    <text x="274" y="687" class="faint s105" text-anchor="end">2 změny</text>
    <text x="70" y="700" class="mono faint s10">K1-011</text>
    <rect x="112" y="690" width="46" height="13" rx="6.5" fill="#e6f4ee"/>
    <text x="135" y="700" fill="#1a7f5a" class="s10" text-anchor="middle">přijato</text>
    <rect x="162" y="690" width="70" height="13" rx="6.5" fill="#e6f4ee"/>
    <text x="197" y="700" fill="#1a7f5a" class="s10" text-anchor="middle">zapracováno</text>

    <rect x="62" y="708" width="220" height="66" rx="5" fill="none" stroke="#f2f1ee"/>
    <rect x="70" y="719" width="9" height="9" rx="2" fill="#259D65"/>
    <text x="86" y="727" class="mono faint s105">r-0131</text>
    <text x="274" y="727" class="faint s105" text-anchor="end">8. 9. 2026 13:22</text>
    <text x="70" y="743" class="ink s12">Uplatnění výhrad při převzetí</text>
    <text x="70" y="757" class="faint s105">Jan Dvořák</text>
    <text x="274" y="757" class="faint s105" text-anchor="end">2 změny</text>
    <text x="70" y="770" class="mono faint s10">K2-002</text>
    <rect x="112" y="760" width="66" height="13" rx="6.5" fill="#fdf2dc"/>
    <text x="145" y="770" fill="#8a6212" class="s10" text-anchor="middle">částečně</text>
  </g>

  <!-- Document pane -->
  <g class="ui">
    <text x="328" y="180" class="faint" font-size="10.5" letter-spacing="1.1">3. PŘEDMĚT PLNĚNÍ</text>
    <text x="726" y="180" class="faint" font-size="10.5" text-anchor="end">5 změn</text>
    <line x1="328" y1="190" x2="726" y2="190" stroke="#e2e0db"/>
  </g>
  <g>
    <!-- tints and rules under the marked runs -->
    <rect x="514" y="227" width="38" height="16" rx="2" fill="#E9F4FB"/>
    <line x1="514" y1="234" x2="552" y2="234" stroke="#25849D" stroke-width="1.5"/>
    <rect x="558" y="227" width="128" height="16" rx="2" fill="#E9F4FB"/>
    <line x1="558" y1="241" x2="686" y2="241" stroke="#25849D" stroke-width="2"/>

    <rect x="642" y="281" width="45" height="16" rx="2" fill="#E9FBF2"/>
    <line x1="642" y1="295" x2="687" y2="295" stroke="#259D65" stroke-width="2"/>
    <rect x="328" y="303" width="301" height="16" rx="2" fill="#E9FBF2"/>
    <line x1="328" y1="317" x2="629" y2="317" stroke="#259D65" stroke-width="2"/>

    <rect x="533" y="357" width="32" height="16" rx="2" fill="#F0E9FB"/>
    <line x1="533" y1="364" x2="565" y2="364" stroke="#51259D" stroke-width="1.5"/>
    <rect x="569" y="356" width="36" height="18" rx="2" fill="#f6e2a8" stroke="#f6e2a8" stroke-width="2"/>
    <line x1="571" y1="371" x2="603" y2="371" stroke="#51259D" stroke-width="2"/>
    <rect x="552" y="379" width="122" height="16" rx="2" fill="#F0E9FB"/>
    <line x1="552" y1="386" x2="674" y2="386" stroke="#51259D" stroke-width="1.5"/>
    <rect x="328" y="401" width="70" height="16" rx="2" fill="#F0E9FB"/>
    <line x1="328" y1="408" x2="398" y2="408" stroke="#51259D" stroke-width="1.5"/>

    <line x1="443" y1="447" x2="501" y2="447" stroke="#c9c6c0" stroke-width="2"/>
  </g>
  <g class="doc">
    <text x="328" y="216" textLength="384">Zhotovitel provede dílo v rozsahu podle přílohy č. 1 a předá</text>
    <text x="328" y="238"><tspan textLength="186">je objednateli nejpozději do </tspan><tspan fill="#8a8781" textLength="38">60 dnů</tspan><tspan textLength="6"> </tspan><tspan textLength="128">30 kalendářních dnů</tspan><tspan textLength="19"> od</tspan></text>
    <text x="328" y="260" textLength="102">podpisu smlouvy.</text>

    <text x="328" y="292"><tspan textLength="314">Objednatel je oprávněn dílo převzít s výhradami; </tspan><tspan textLength="45">výhrady</tspan></text>
    <text x="328" y="314"><tspan textLength="301">musí být uplatněny písemně do 5 pracovních dnů.</tspan><tspan textLength="58"> Pozdější</tspan></text>
    <text x="328" y="336" textLength="211">námitka se nepovažuje za výhradu.</text>

    <text x="328" y="368"><tspan textLength="205">Smluvní pokuta za prodlení činí </tspan><tspan fill="#8a8781" textLength="32">0,5 %</tspan><tspan textLength="6"> </tspan><tspan textLength="32">0,2 %</tspan><tspan textLength="45"> z ceny</tspan></text>
    <text x="328" y="390"><tspan textLength="224">díla za každý započatý den prodlení</tspan><tspan fill="#8a8781" textLength="122">, nejvýše však 20 %</tspan></text>
    <text x="328" y="412"><tspan fill="#8a8781" textLength="70">z ceny díla</tspan><tspan textLength="6">.</tspan></text>

    <text x="328" y="444"><tspan textLength="115">Záruční doba činí </tspan><tspan opacity="0.45" textLength="58">24 měsíců</tspan><tspan textLength="141"> ode dne předání díla.</tspan></text>
  </g>

  <!-- Inspector -->
  <g class="ui">
    <text x="772" y="176" class="h2">ROZBOR ZMĚNY</text>

    <text x="772" y="198" class="h3">Co se změnilo</text>
    <text x="772" y="218" class="faint" font-size="9.5" letter-spacing="0.6">ODSTRANĚNO</text>
    <text x="842" y="218" fill="#a33a2c" class="s12" text-decoration="line-through">0,5 % z ceny díla</text>
    <text x="772" y="236" class="faint" font-size="9.5" letter-spacing="0.6">VLOŽENO</text>
    <text x="842" y="236" fill="#1a7f5a" class="s12">0,2 %</text>
    <text x="772" y="258" class="faint s105">Kapitola</text>
    <text x="842" y="258" class="ink s115">3. Předmět plnění</text>

    <text x="772" y="282" class="h3">Kdy a kdo</text>
    <text x="772" y="300" class="faint s105">Revize</text>
    <text x="842" y="300" class="ink s115"><tspan class="mono">r-0142</tspan> · pokyn</text>
    <text x="772" y="316" class="faint s105">Kdy</text>
    <text x="842" y="316" class="ink s115">14. 9. 2026 16:40</text>
    <text x="772" y="332" class="faint s105">Kdo</text>
    <text x="842" y="332" class="ink s115">Jan Dvořák — právní</text>
    <text x="772" y="348" class="faint s105">Commit</text>
    <text x="842" y="348" class="ink mono s115">8f2a1c7</text>

    <text x="772" y="372" class="h3">Pokyn</text>
    <rect x="772" y="378" width="3" height="38" rx="1.5" fill="#c9c6c0"/>
    <text x="784" y="392" class="soft s115">Snižte smluvní pokutu na 0,2 %</text>
    <text x="784" y="408" class="soft s115">a zrušte horní strop.</text>

    <text x="772" y="436" class="h3">Připomínka</text>
    <text x="772" y="454" class="faint s105">Připomínkující</text>
    <text x="862" y="454" class="ink s115">Eva Horáková — CFO</text>
    <text x="772" y="470" class="faint s105">Kolo</text>
    <text x="862" y="470" class="ink s115"><tspan class="mono">K2-004</tspan> (kolo 2)</text>
    <text x="772" y="487" class="faint s105">Ověření</text>
    <rect x="862" y="477" width="62" height="14" rx="7" fill="#efeee9"/>
    <text x="893" y="487" class="soft s10" text-anchor="middle">potvrzeno</text>
    <text x="772" y="505" class="faint s105">Rozhodnutí</text>
    <rect x="862" y="495" width="48" height="14" rx="7" fill="#e6f4ee"/>
    <text x="886" y="505" fill="#1a7f5a" class="s10" text-anchor="middle">přijato</text>
    <text x="772" y="523" class="faint s105">Vypořádání</text>
    <rect x="862" y="513" width="72" height="14" rx="7" fill="#e6f4ee"/>
    <text x="898" y="523" fill="#1a7f5a" class="s10" text-anchor="middle">zapracováno</text>
    <rect x="772" y="534" width="3" height="38" rx="1.5" fill="#c9c6c0"/>
    <text x="784" y="548" class="soft s115">„Sankce v této výši je pro nás</text>
    <text x="784" y="564" class="soft s115">neúnosná, navrhujeme 0,2 %.“</text>

    <text x="772" y="592" class="h3">Zasažené kapitoly</text>
    <text x="772" y="606" class="faint" font-size="10.5">Jedna revize běžně zasáhne víc kapitol.</text>
    <rect x="772" y="612" width="262" height="22" rx="4" fill="#eaf1f9"/>
    <text x="780" y="627" class="ink s115">3. Předmět plnění</text>
    <text x="1026" y="627" class="faint s105" text-anchor="end">2 změny</text>
    <rect x="772" y="638" width="262" height="22" rx="4" fill="none" stroke="#f2f1ee"/>
    <text x="780" y="653" class="ink s115">7. Sankce a odstoupení</text>
    <text x="1026" y="653" class="faint s105" text-anchor="end">1 změna</text>

    <text x="772" y="684" class="h3">Další změny téže revize</text>
    <text x="772" y="698" class="faint" font-size="10.5">Jeden pokyn dopadl na víc míst v dokumentu. 1 z 3</text>
    <rect x="772" y="704" width="262" height="34" rx="4" fill="#eaf1f9"/>
    <text x="780" y="717" class="faint s105"><tspan class="mono">e-0087</tspan> · 3. Předmět plnění</text>
    <text x="780" y="732" class="soft s115">0,5 % → 0,2 % z ceny díla</text>
    <rect x="772" y="742" width="262" height="34" rx="4" fill="none" stroke="#f2f1ee"/>
    <text x="780" y="755" class="faint s105"><tspan class="mono">e-0088</tspan> · 3. Předmět plnění</text>
    <text x="780" y="770" class="soft s115">, nejvýše však 20 % z ceny díla</text>
    <rect x="772" y="780" width="262" height="34" rx="4" fill="none" stroke="#f2f1ee"/>
    <text x="780" y="793" class="faint s105"><tspan class="mono">e-0089</tspan> · 7. Sankce a odstoupení</text>
    <text x="780" y="808" class="soft s115">smluvní pokuta ve výši 0,2 %</text>

    <rect x="772" y="830" width="104" height="22" rx="4" fill="none" stroke="#e2e0db"/>
    <text x="824" y="845" class="soft" font-size="11" text-anchor="middle">Kopírovat odkaz</text>
    <rect x="882" y="830" width="74" height="22" rx="4" fill="none" stroke="#e2e0db"/>
    <text x="919" y="845" class="soft" font-size="11" text-anchor="middle">Tisk / PDF</text>
  </g>

  </g>

  <!-- The rail: the leftmost column, in its narrow state -->
  <g class="ui">
    <line x1="96" y1="156" x2="96" y2="880" stroke="#e2e0db"/>

    <!-- the state switch, at the top, where ChatGPT puts it -->
    <g transform="translate(62,170)" fill="none" stroke="#8a8781" stroke-width="1.5"
       stroke-linecap="round" stroke-linejoin="round">
      <rect x="3" y="4" width="14" height="12" rx="2"/>
      <path d="M8 4v12"/>
      <path d="M11.5 8.5l2 1.5-2 1.5"/>
    </g>

    <!-- Čistopis -->
    <g transform="translate(62,211)" fill="none" stroke="#55534e" stroke-width="1.5"
       stroke-linecap="round" stroke-linejoin="round">
      <path d="M4 5h12M4 9h12M4 13h12M4 17h7"/>
    </g>

    <!-- Se změnami, the mode this drawing is in -->
    <rect x="54" y="240" width="36" height="34" rx="4" fill="#2b6cb0"/>
    <g transform="translate(62,247)" fill="none" stroke="#ffffff" stroke-width="1.5"
       stroke-linecap="round" stroke-linejoin="round">
      <path d="M4 5h12M4 9h12M4 13h12M4 17h7"/>
      <path d="M15.5 3.5L6 18"/>
    </g>

    <!-- Původní verze -->
    <g transform="translate(62,283)" fill="none" stroke="#55534e" stroke-width="1.5"
       stroke-linecap="round" stroke-linejoin="round">
      <path d="M4 10a6 6 0 1 1 1.8 4.3"/>
      <path d="M4 6.5V10h3.5"/>
      <path d="M10 7v3.2l2.2 1.5"/>
    </g>

    <line x1="54" y1="318" x2="90" y2="318" stroke="#e2e0db"/>

    <!-- O nástroji -->
    <g transform="translate(62,333)" fill="none" stroke="#55534e" stroke-width="1.5"
       stroke-linecap="round" stroke-linejoin="round">
      <circle cx="10" cy="10" r="7"/>
      <path d="M10 9v5"/>
      <path d="M10 6.2v.1"/>
    </g>
  </g>

  <!-- Callout markers -->
  <g class="ui">
    <circle cx="110" cy="133" r="9" fill="#2b6cb0"/><text x="110" y="137" class="bnum">1</text>
    <line x1="43" y1="230" x2="58" y2="230" stroke="#2b6cb0"/>
    <circle cx="34" cy="230" r="9" fill="#2b6cb0"/><text x="34" y="234" class="bnum">2</text>
    <circle cx="940" cy="118" r="9" fill="#2b6cb0"/><text x="940" y="122" class="bnum">3</text>
    <circle cx="103" cy="181" r="9" fill="#2b6cb0"/><text x="103" y="185" class="bnum">4</text>
    <circle cx="103" cy="300" r="9" fill="#2b6cb0"/><text x="103" y="304" class="bnum">5</text>
    <circle cx="103" cy="600" r="9" fill="#2b6cb0"/><text x="103" y="604" class="bnum">6</text>
    <circle cx="346" cy="820" r="9" fill="#2b6cb0"/><text x="346" y="824" class="bnum">7</text>
    <circle cx="362" cy="216" r="9" fill="#2b6cb0"/><text x="362" y="220" class="bnum">8</text>
    <circle cx="1086" cy="170" r="9" fill="#2b6cb0"/><text x="1086" y="174" class="bnum">9</text>
  </g>

  <!-- Callouts -->
  <g class="ui">
    <circle cx="1137" cy="139" r="9" fill="#2b6cb0"/><text x="1137" y="143" class="bnum">1</text>
    <text x="1156" y="143" class="capH">What is open</text>
    <text x="1156" y="158" class="cap">The document, its version, and the version this</text>
    <text x="1156" y="172" class="cap">comparison is made against. Every mark below</text>
    <text x="1156" y="186" class="cap">means nothing without that baseline.</text>

    <circle cx="1137" cy="210" r="9" fill="#2b6cb0"/><text x="1137" y="214" class="bnum">2</text>
    <text x="1156" y="214" class="capH">The rail — what the window shows</text>
    <text x="1156" y="229" class="cap">Čistopis — the final text, as the reader gets it.</text>
    <text x="1156" y="243" class="cap">Se změnami — insertions underlined, deletions</text>
    <text x="1156" y="257" class="cap">struck through. Původní verze — the text the</text>
    <text x="1156" y="271" class="cap">reviewers were given. O nástroji opens #/about.</text>

    <circle cx="1137" cy="292" r="9" fill="#2b6cb0"/><text x="1137" y="296" class="bnum">3</text>
    <text x="1156" y="296" class="capH">Where the bundle came from</text>
    <text x="1156" y="311" class="cap">How many changes have no record behind them,</text>
    <text x="1156" y="325" class="cap">and when the bundle was built. The count shows</text>
    <text x="1156" y="339" class="cap">even when it is zero. The header names what is</text>
    <text x="1156" y="353" class="cap">open; the controls it used to hold are in the rail.</text>

    <circle cx="1137" cy="374" r="9" fill="#2b6cb0"/><text x="1137" y="378" class="bnum">4</text>
    <text x="1156" y="378" class="capH">Three ways into one document</text>
    <text x="1156" y="393" class="cap">Kapitoly enters by chapter, Revize by the</text>
    <text x="1156" y="407" class="cap">instruction that caused the change, Připomínky</text>
    <text x="1156" y="421" class="cap">by the review. The comment list is the only way</text>
    <text x="1156" y="435" class="cap">to reach a comment that changed nothing.</text>

    <circle cx="1137" cy="456" r="9" fill="#2b6cb0"/><text x="1137" y="460" class="bnum">5</text>
    <text x="1156" y="460" class="capH">One filter above all three</text>
    <text x="1156" y="475" class="cap">Full text, author, round, the three gates a</text>
    <text x="1156" y="489" class="cap">comment passes (Ověření, Rozhodnutí,</text>
    <text x="1156" y="503" class="cap">Vypořádání) and a date range. What it excludes</text>
    <text x="1156" y="517" class="cap">is dimmed in the document, never hidden.</text>

    <circle cx="1137" cy="538" r="9" fill="#2b6cb0"/><text x="1137" y="542" class="bnum">6</text>
    <text x="1156" y="542" class="capH">The revision list</text>
    <text x="1156" y="557" class="cap">Each revision carries a colour. The same colour</text>
    <text x="1156" y="571" class="cap">marks every passage that revision produced, in</text>
    <text x="1156" y="585" class="cap">every chapter. The badges say how its comments</text>
    <text x="1156" y="599" class="cap">were disposed of.</text>

    <circle cx="1137" cy="620" r="9" fill="#2b6cb0"/><text x="1137" y="624" class="bnum">7</text>
    <text x="1156" y="624" class="capH">Draggable split</text>
    <text x="1156" y="639" class="cap">Drag, step with arrow keys, double-click to</text>
    <text x="1156" y="653" class="cap">reset. The widths are remembered.</text>

    <circle cx="1137" cy="674" r="9" fill="#2b6cb0"/><text x="1137" y="678" class="bnum">8</text>
    <text x="1156" y="678" class="capH">The document itself</text>
    <text x="1156" y="693" class="cap">The final text with every change marked in</text>
    <text x="1156" y="707" class="cap">place — no side-by-side diff. Click a mark to</text>
    <text x="1156" y="721" class="cap">open the inspector; press n to jump to the next</text>
    <text x="1156" y="735" class="cap">place the same revision landed, chapter or not.</text>

    <circle cx="1137" cy="756" r="9" fill="#2b6cb0"/><text x="1137" y="760" class="bnum">9</text>
    <text x="1156" y="760" class="capH">The record behind the change</text>
    <text x="1156" y="775" class="cap">What changed, when and by whom, the verbatim</text>
    <text x="1156" y="789" class="cap">instruction, the comment with its three gates,</text>
    <text x="1156" y="803" class="cap">the chapters the revision touched, and its other</text>
    <text x="1156" y="817" class="cap">edits. A selection is a link that can be mailed.</text>
  </g>

  <!-- Legend -->
  <g class="ui">
    <rect x="48" y="900" width="1348" height="76" rx="6" fill="#ffffff" stroke="#e2e0db"/>
    <text x="68" y="920" class="h2">HOW A PASSAGE IS MARKED</text>

    <text x="68" y="944" class="doc" textLength="88">nezměněný text</text>
    <text x="166" y="944" class="faint" font-size="11">kept — carried over unchanged</text>

    <rect x="360" y="933" width="80" height="16" rx="2" fill="#E9F4FB"/>
    <line x1="360" y1="947" x2="440" y2="947" stroke="#25849D" stroke-width="2"/>
    <text x="360" y="944" class="doc" textLength="80">vložený text</text>
    <text x="450" y="944" class="faint" font-size="11">inserted — underlined, tinted with the revision's colour</text>

    <rect x="800" y="933" width="86" height="16" rx="2" fill="#F0E9FB"/>
    <line x1="800" y1="940" x2="886" y2="940" stroke="#51259D" stroke-width="1.5"/>
    <text x="800" y="944" class="doc faint" textLength="86">smazaný text</text>
    <text x="896" y="944" class="faint" font-size="11">deleted — struck through</text>

    <text x="68" y="966" class="doc" opacity="0.45" textLength="58">24 měsíců</text>
    <line x1="68" y1="969" x2="126" y2="969" stroke="#c9c6c0" stroke-width="2"/>
    <text x="166" y="966" class="faint" font-size="11">excluded by the filter — dimmed, never removed</text>

    <rect x="478" y="955" width="36" height="18" rx="2" fill="#f6e2a8"/>
    <text x="480" y="966" class="doc" textLength="32">0,2 %</text>
    <line x1="480" y1="969" x2="512" y2="969" stroke="#51259D" stroke-width="2"/>
    <text x="524" y="966" class="faint" font-size="11">selected — the edit the inspector is showing</text>

    <text x="1376" y="944" class="faint" font-size="11" text-anchor="end">Colour identifies the revision, not the kind of change:</text>
    <text x="1376" y="966" class="faint" font-size="11" text-anchor="end">one instruction landing in three chapters is one colour everywhere.</text>
  </g>
  <!-- The two states of the rail -->
  <g class="ui">
    <rect x="48" y="1000" width="1348" height="230" rx="6" fill="#ffffff" stroke="#e2e0db"/>
    <text x="68" y="1022" class="h2">THE RAIL HAS TWO STATES</text>

    <!-- narrow: icons only -->
    <rect x="68" y="1032" width="48" height="190" rx="4" fill="#fbfbfa" stroke="#e2e0db"/>
    <g transform="translate(82,1040)" fill="none" stroke="#8a8781" stroke-width="1.5"
       stroke-linecap="round" stroke-linejoin="round">
      <rect x="3" y="4" width="14" height="12" rx="2"/>
      <path d="M8 4v12"/>
      <path d="M11.5 8.5l2 1.5-2 1.5"/>
    </g>
    <g transform="translate(82,1076)" fill="none" stroke="#55534e" stroke-width="1.5"
       stroke-linecap="round" stroke-linejoin="round">
      <path d="M4 5h12M4 9h12M4 13h12M4 17h7"/>
    </g>
    <rect x="74" y="1105" width="36" height="34" rx="4" fill="#2b6cb0"/>
    <g transform="translate(82,1112)" fill="none" stroke="#ffffff" stroke-width="1.5"
       stroke-linecap="round" stroke-linejoin="round">
      <path d="M4 5h12M4 9h12M4 13h12M4 17h7"/>
      <path d="M15.5 3.5L6 18"/>
    </g>
    <g transform="translate(82,1148)" fill="none" stroke="#55534e" stroke-width="1.5"
       stroke-linecap="round" stroke-linejoin="round">
      <path d="M4 10a6 6 0 1 1 1.8 4.3"/>
      <path d="M4 6.5V10h3.5"/>
      <path d="M10 7v3.2l2.2 1.5"/>
    </g>
    <line x1="74" y1="1182" x2="110" y2="1182" stroke="#e2e0db"/>
    <g transform="translate(82,1192)" fill="none" stroke="#55534e" stroke-width="1.5"
       stroke-linecap="round" stroke-linejoin="round">
      <circle cx="10" cy="10" r="7"/>
      <path d="M10 9v5"/>
      <path d="M10 6.2v.1"/>
    </g>

    <!-- wide: the same icons with the labels the header used to show -->
    <rect x="200" y="1032" width="184" height="190" rx="4" fill="#fbfbfa" stroke="#e2e0db"/>
    <g transform="translate(213,1040)" fill="none" stroke="#8a8781" stroke-width="1.5"
       stroke-linecap="round" stroke-linejoin="round">
      <rect x="3" y="4" width="14" height="12" rx="2"/>
      <path d="M8 4v12"/>
      <path d="M13.5 8.5L11.5 10l2 1.5"/>
    </g>
    <g transform="translate(213,1076)" fill="none" stroke="#55534e" stroke-width="1.5"
       stroke-linecap="round" stroke-linejoin="round">
      <path d="M4 5h12M4 9h12M4 13h12M4 17h7"/>
    </g>
    <text x="243" y="1090" class="soft s115">Čistopis</text>
    <rect x="206" y="1105" width="172" height="34" rx="4" fill="#2b6cb0"/>
    <g transform="translate(213,1112)" fill="none" stroke="#ffffff" stroke-width="1.5"
       stroke-linecap="round" stroke-linejoin="round">
      <path d="M4 5h12M4 9h12M4 13h12M4 17h7"/>
      <path d="M15.5 3.5L6 18"/>
    </g>
    <text x="243" y="1126" fill="#ffffff" class="s115">Se změnami</text>
    <g transform="translate(213,1148)" fill="none" stroke="#55534e" stroke-width="1.5"
       stroke-linecap="round" stroke-linejoin="round">
      <path d="M4 10a6 6 0 1 1 1.8 4.3"/>
      <path d="M4 6.5V10h3.5"/>
      <path d="M10 7v3.2l2.2 1.5"/>
    </g>
    <text x="243" y="1162" class="soft s115">Původní verze</text>
    <line x1="206" y1="1182" x2="378" y2="1182" stroke="#e2e0db"/>
    <g transform="translate(213,1192)" fill="none" stroke="#55534e" stroke-width="1.5"
       stroke-linecap="round" stroke-linejoin="round">
      <circle cx="10" cy="10" r="7"/>
      <path d="M10 9v5"/>
      <path d="M10 6.2v.1"/>
    </g>
    <text x="243" y="1206" class="soft s115">O nástroji</text>

    <text x="460" y="1055" class="capH">Narrow is the default</text>
    <text x="460" y="1073" class="cap">The viewer's whole point is the document, and the editor</text>
    <text x="460" y="1089" class="cap">webview is routinely half a screen wide: a tool that opens</text>
    <text x="460" y="1105" class="cap">with two columns of chrome in front of the text has spent</text>
    <text x="460" y="1121" class="cap">width it has not earned.</text>
    <text x="460" y="1145" class="cap">Which state it is in is a per-viewer convenience, remembered</text>
    <text x="460" y="1161" class="cap">in <tspan class="mono">localStorage</tspan> under <tspan class="mono">revlens:rail</tspan> with every access guarded.</text>
    <text x="460" y="1177" class="cap">Storage that is absent or blocked never stops the page from</text>
    <text x="460" y="1193" class="cap">rendering — the rail simply opens narrow.</text>

    <text x="900" y="1055" class="capH">And to a reader who cannot see it</text>
    <text x="900" y="1073" class="cap">The rail is a <tspan class="mono">nav</tspan>. The three modes are one group marked</text>
    <text x="900" y="1089" class="cap">with <tspan class="mono">aria-pressed</tspan>, because exactly one of them is on at a</text>
    <text x="900" y="1105" class="cap">time; O nástroji is a toggle, behind a divider.</text>
    <text x="900" y="1129" class="cap">The label is the accessible name in both states — the narrow</text>
    <text x="900" y="1145" class="cap">one hides it from the eye and not from a screen reader, so</text>
    <text x="900" y="1161" class="cap">no entry is ever an unnamed glyph.</text>
    <text x="900" y="1185" class="cap">The state switch reports <tspan class="mono">aria-expanded</tspan>, the arrow keys walk</text>
    <text x="900" y="1201" class="cap">the entries, and the whole rail is hidden in print.</text>
  </g>
</svg>

